<svg viewBox="0 0 800 600" fill="none" xmlns="http://www.w3.org/2000/svg">
  <rect width="800" height="600" fill="#0a0a10"/>
  <defs>
    <linearGradient id="g1" x1="0" y1="0" x2="1" y2="1"><stop offset="0%" stop-color="#00ff99" stop-opacity="0.15"/><stop offset="100%" stop-color="#00ff99" stop-opacity="0"/></linearGradient>
    <linearGradient id="g2" x1="0" y1="0" x2="0" y2="1"><stop offset="0%" stop-color="#1a1a2e"/><stop offset="100%" stop-color="#0a0a10"/></linearGradient>
  </defs>
  <rect x="0" y="0" width="800" height="600" fill="url(#g2)"/>
  <circle cx="400" cy="300" r="280" fill="url(#g1)"/>
  <!-- Desktop screen -->
  <rect x="180" y="140" width="440" height="290" rx="14" fill="#12121a" stroke="rgba(0,255,153,0.12)" stroke-width="1"/>
  <rect x="180" y="140" width="440" height="290" rx="14" fill="url(#g1)" opacity="0.3"/>
  <rect x="370" y="430" width="60" height="8" rx="4" fill="#1a1a2e"/>
  <!-- Screen content -->
  <rect x="210" y="170" width="120" height="16" rx="4" fill="#00ff99" opacity="0.3"/>
  <rect x="210" y="196" width="200" height="8" rx="4" fill="#ffffff" opacity="0.08"/>
  <rect x="210" y="214" width="160" height="8" rx="4" fill="#ffffff" opacity="0.08"/>
  <!-- Chart bars -->
  <rect x="210" y="250" width="30" height="60" rx="3" fill="#00ff99" opacity="0.4"/>
  <rect x="250" y="270" width="30" height="40" rx="3" fill="#ffffff" opacity="0.08"/>
  <rect x="290" y="240" width="30" height="70" rx="3" fill="#00ff99" opacity="0.6"/>
  <rect x="330" y="260" width="30" height="50" rx="3" fill="#ffffff" opacity="0.08"/>
  <rect x="370" y="220" width="30" height="90" rx="3" fill="#00ff99" opacity="0.5"/>
  <rect x="410" y="245" width="30" height="65" rx="3" fill="#ffffff" opacity="0.08"/>
  <rect x="450" y="210" width="30" height="100" rx="3" fill="#00ff99" opacity="0.7"/>
  <rect x="490" y="235" width="30" height="75" rx="3" fill="#ffffff" opacity="0.06"/>
  <rect x="530" y="200" width="30" height="110" rx="3" fill="#00ff99" opacity="0.35"/>
  <!-- Grid lines -->
  <line x1="210" y1="310" x2="560" y2="310" stroke="#ffffff" stroke-opacity="0.04" stroke-width="1"/>
  <line x1="210" y1="280" x2="560" y2="280" stroke="#ffffff" stroke-opacity="0.04" stroke-width="1"/>
  <line x1="210" y1="250" x2="560" y2="250" stroke="#ffffff" stroke-opacity="0.04" stroke-width="1"/>
  <!-- Arrow up -->
  <path d="M490 310 L490 200 M480 212 L490 200 L500 212" stroke="#00ff99" stroke-width="2" stroke-linecap="round" stroke-linejoin="round" fill="none"/>
  <!-- Glow spot -->
  <circle cx="450" cy="240" r="60" fill="#00ff99" opacity="0.06"/>
  <!-- Keyboard hint -->
  <rect x="260" y="340" width="280" height="50" rx="8" fill="#ffffff" opacity="0.02" stroke="rgba(255,255,255,0.04)" stroke-width="1"/>
  <circle cx="290" cy="365" r="6" fill="#00ff99" opacity="0.3"/>
  <rect x="310" y="360" width="80" height="10" rx="3" fill="#ffffff" opacity="0.06"/>
  <rect x="400" y="360" width="60" height="10" rx="3" fill="#00ff99" opacity="0.15"/>
  <rect x="470" y="360" width="50" height="10" rx="3" fill="#ffffff" opacity="0.06"/>
  <!-- Ambient particles -->
  <circle cx="150" cy="100" r="2" fill="#00ff99" opacity="0.2"/>
  <circle cx="650" cy="150" r="1.5" fill="#00ff99" opacity="0.15"/>
  <circle cx="700" cy="450" r="2" fill="#00ff99" opacity="0.1"/>
  <circle cx="100" cy="500" r="1.5" fill="#00ff99" opacity="0.12"/>
  <circle cx="300" cy="80" r="1" fill="#00ff99" opacity="0.2"/>
  <circle cx="550" cy="520" r="1.5" fill="#00ff99" opacity="0.08"/>
</svg>
